<svg height="512pt" viewBox="0 -12 512.00046 512" width="512pt" xmlns="http://www.w3.org/2000/svg"><path d="m313.96875 0-197.660156 114.546875-.375-.210937v206.988281l198.035156 114.335937 198.03125-114.335937v-206.992188zm0 16.570312 169.386719 97.792969-.308594.179688-169.078125-97.617188-169.386719 97.804688zm0 0" fill="#1d8348"/><path d="m313.96875 435.65625-198.03125-114.332031v-206.988281l198.03125 114.332031zm0 0" fill="#1d8348"/><path d="m313.96875 435.65625 198.03125-114.332031v-206.988281l-198.03125 114.332031zm0 0" fill="#2ecc71"/><path d="m313.96875 212.527344v-195.601563l-169.386719 97.804688zm0 0" fill="#2ecc71"/><path d="m313.96875 0-198.03125 114.761719 198.03125 114.335937 198.03125-114.761718zm-169.386719 114.730469 169.386719-98.160157 169.386719 97.792969-169.386719 98.164063zm0 0" fill="#36f085"/><path d="m319.085938 200.273438-206.253907-119.230469-45.484375 26.226562-50.855468 261.765625 206.335937 118.828125-.082031.402344.390625-.222656 45.09375-26.003907zm0 0" fill="#2ecc71"/><path d="m273.992188 226.277344-50.855469 261.765625-206.644531-119.007813 50.855468-261.765625zm0 0" fill="#1d8348"/><path d="m319.085938 200.273438-206.253907-119.230469-45.484375 26.226562 206.257813 119.230469zm0 0" fill="#36f085"/><path d="m448.699219 358.066406v-207.042968l-43.027344 24.613281v207.042969zm0 0" fill="#ffd800"/><path d="m256.542969 322.582031c-7.957031-10.402343-26.160157-10.285156-43.324219-8.96875l48.726562-36.796875-28.609374-18.945312-1.90625-39.113282-84 63.429688-83.878907-160.476562-1.945312 36.886718-28.617188-14.132812 65.894531 126.070312c-5.207031-4.449218-11.757812-10.386718-19.199218-17.902344-18.484375-18.671874-35.539063-43.71875-56.429688-35.042968-20.886718 8.671875-24.667968 26.515625-22.851562 51.183594 1.816406 24.671874-5.789063 35.496093 8.914062 52.660156 14.707032 17.167968 58.183594 1.351562 75.039063 3.617187 4.488281.605469 8.492187 1.019531 12.097656 1.191407.769531 3.488281 2.070313 6.921874 3.949219 10.183593 9.308594 16.140625 29.285156 22.28125 45.894531 14.671875 2.96875 4.089844 6.109375 6.789063 6.109375 6.789063s12.640625 9.820312 30.058594 29.488281c17.421875 19.671875 33.0625 45.625 54.402344 38.121094 21.335937-7.5 26.101562-25.105469 25.65625-49.839844-.445313-24.730469 7.75-35.117188-5.980469-53.074219zm0 0" fill="#ffd800"/><path d="m158.894531 320.546875s20.367188 6.84375 37.203125 17.46875c16.835938 10.625 48.234375 16.792969 54.789063 5.875 6.554687-10.917969-12.222657-26.152344-24.492188-25.144531-12.269531 1.007812-38.304687 3.527344-47.019531 1.414062-8.714844-2.113281-20.480469.386719-20.480469.386719zm0 0" fill="#f39c12"/><path d="m99.015625 284.398438s-72.007813-26.71875-79.304687-37.445313c-7.296876-10.722656 9.292968-21.101563 23.871093-11.234375 14.574219 9.867188 55.433594 48.679688 55.433594 48.679688zm0 0" fill="#f39c12"/><path d="m167.226562 318.539062c0 19.773438-16.027343 35.804688-35.804687 35.804688-19.773437 0-35.804687-16.03125-35.804687-35.804688 0-19.777343 16.03125-35.808593 35.804687-35.808593 19.777344 0 35.804687 16.03125 35.804687 35.808593zm0 0" fill="#f1c40f"/></svg>